<svg width="512" height="512" viewBox="0 0 512 512" fill="none" xmlns="http://www.w3.org/2000/svg">
<circle cx="256" cy="256" r="256" fill="#FF203E"/>
<path fill-rule="evenodd" clip-rule="evenodd" d="M383.758 126.438C382.732 125.947 381.306 125.432 377.955 124.275C366.894 120.454 350.667 115.936 334.687 115.187C318.429 114.426 305.234 117.656 296.837 126.054L266.883 156.008C266.27 156.62 265.666 157.226 265.068 157.825C254.625 168.29 246.354 176.578 235.494 180.658C224.634 184.739 212.952 183.948 198.201 182.949C197.357 182.892 196.503 182.834 195.639 182.776L177.142 181.543C167.106 180.874 160.459 180.443 155.266 180.528C150.302 180.609 147.767 181.171 145.918 181.927C143.145 183.06 140.606 184.697 138.43 186.755C136.979 188.127 135.421 190.205 133.299 194.693C131.079 199.388 128.729 205.621 125.197 215.039C120.849 226.634 117.931 234.45 116.306 240.218C115.195 244.159 115.1 245.857 115.074 246.256C115.183 246.534 115.266 246.718 115.324 246.834C115.366 246.92 115.411 246.996 115.411 246.996L115.437 247.037L115.467 247.075C115.467 247.075 115.526 247.141 115.593 247.208C115.666 247.28 115.772 247.381 115.925 247.513C116.056 247.549 116.227 247.593 116.445 247.641C117.754 247.928 119.901 248.196 123.319 248.332C130.241 248.606 139.937 248.277 153.991 247.785C181.827 246.81 216.318 250.769 238.774 273.226C261.231 295.682 265.19 330.173 264.215 358.009C263.723 372.063 263.394 381.759 263.668 388.681C263.804 392.099 264.072 394.246 264.359 395.555C264.407 395.772 264.45 395.944 264.487 396.075C264.619 396.228 264.72 396.334 264.792 396.407C264.859 396.474 264.925 396.533 264.925 396.533L264.963 396.563L265.004 396.589C265.004 396.589 265.08 396.633 265.166 396.676C265.282 396.734 265.466 396.817 265.744 396.926C266.143 396.9 267.841 396.805 271.782 395.694C277.55 394.069 285.366 391.151 296.961 386.803C306.379 383.271 312.612 380.921 317.307 378.701C321.795 376.579 323.873 375.021 325.245 373.57C327.303 371.394 328.94 368.855 330.073 366.082C330.829 364.233 331.391 361.698 331.472 356.734C331.557 351.541 331.126 344.894 330.457 334.858L329.224 316.361C329.166 315.497 329.108 314.643 329.051 313.799C328.052 299.048 327.261 287.366 331.342 276.506C335.422 265.646 343.71 257.375 354.175 246.932C354.774 246.334 355.38 245.73 355.992 245.117L385.946 215.163C394.344 206.766 397.574 193.571 396.813 177.313C396.064 161.333 391.546 145.106 387.725 134.045C386.568 130.694 386.053 129.268 385.562 128.242C385.275 127.643 385.138 127.472 384.833 127.167C384.528 126.862 384.357 126.725 383.758 126.438ZM388.419 97.1202C393.806 98.9674 399.824 101.031 405.396 106.604C410.969 112.176 413.033 118.194 414.88 123.581C414.991 123.906 415.102 124.229 415.213 124.55C419.437 136.778 424.928 155.996 425.862 175.952C426.784 195.631 423.371 218.866 406.51 235.727L376.556 265.681C363.382 278.855 360.15 282.516 358.565 286.735C356.98 290.953 357.001 295.836 358.241 314.427L359.512 333.501C360.133 342.807 360.657 350.666 360.55 357.21C360.437 364.117 359.63 370.631 356.995 377.081C354.502 383.181 350.901 388.766 346.373 393.554C341.584 398.616 335.984 402.038 329.739 404.991C323.822 407.79 316.447 410.555 307.715 413.829L306.536 414.271C295.74 418.32 286.765 421.686 279.67 423.685C273.005 425.564 264.547 427.354 256.558 424.533C249.977 422.209 245.417 418.929 241.12 413.43C238.192 409.682 236.758 405.451 235.954 401.792C235.141 398.086 234.775 394.013 234.609 389.833C234.286 381.689 234.665 370.893 235.129 357.629L235.152 356.991C236.071 330.733 231.598 307.177 218.21 293.79C204.823 280.402 181.267 275.929 155.009 276.848L154.371 276.871C141.107 277.335 130.311 277.714 122.167 277.391C117.987 277.225 113.914 276.859 110.208 276.046C106.549 275.242 102.318 273.808 98.5705 270.88C93.0707 266.583 89.791 262.023 87.4669 255.442C84.6457 247.453 86.436 238.995 88.3145 232.33C90.3138 225.235 93.68 216.26 97.7285 205.464L98.1705 204.285C101.445 195.553 104.21 188.178 107.008 182.261C109.962 176.016 113.384 170.416 118.446 165.627C123.234 161.099 128.819 157.498 134.919 155.005C141.369 152.37 147.883 151.563 154.79 151.45C161.334 151.343 169.193 151.867 178.498 152.488L197.573 153.759C216.164 154.999 221.047 155.02 225.265 153.435C229.484 151.85 233.145 148.618 246.319 135.444L276.273 105.49C293.134 88.6286 316.369 85.2159 336.048 86.1375C356.004 87.0722 375.222 92.5631 387.45 96.7871C387.771 96.8978 388.094 97.0086 388.419 97.1202Z" fill="white"/>
<path fill-rule="evenodd" clip-rule="evenodd" d="M180.308 331.691C170.843 322.227 155.499 322.227 146.035 331.691C141.507 336.218 137.347 344.508 134.346 356.228C132.318 364.149 131.007 372.896 130.318 381.681C139.103 380.992 147.849 379.681 155.771 377.653C167.49 374.652 175.78 370.491 180.308 365.964C189.772 356.5 189.772 341.155 180.308 331.691ZM125.471 311.128C146.292 290.306 180.05 290.306 200.871 311.128C221.692 331.949 221.692 365.707 200.871 386.528C190.963 396.436 176.776 402.294 162.984 405.825C148.872 409.439 133.433 411.051 119.332 411.312C108.951 411.504 100.495 403.048 100.687 392.667C100.947 378.566 102.56 363.127 106.173 349.014C109.705 335.223 115.562 321.036 125.471 311.128Z" fill="white"/>
<path d="M355.099 184.318C347.528 191.889 335.252 191.889 327.681 184.318C320.11 176.746 320.11 164.471 327.681 156.899C335.252 149.328 347.528 149.328 355.099 156.899C362.671 164.471 362.671 176.746 355.099 184.318Z" fill="white"/>
</svg>
